#!OML:ASF E:/inclinewalkrobotboard/Project1/Captureday1/Session1/subject1.ASF
:FULLY-SPECIFIED
:DEGREES
76
root 0 0 0 2.308040431726064 -3.9122856207047008 2.508802579289312
lowerback 12.196494055385195 0.9206075118902513 -0.48352659542087195
upperback -4.115292598342524 1.1359561358036525 -0.7194105275304358
thorax -11.255610813199176 0.523026932646613 -0.754529282081486
lowerneck -7.079236660193199 1.422651066992177 4.332679174181028
upperneck 19.0869651787938 2.9061709349381157 -8.249609851095437
head 7.144081286039811 1.0047749214659443 -3.189344759346751
rclavicle -1.4759333919182897E-15 -1.5982527960266289E-15
rhumerus 17.49837077731253 13.364205145727967 -51.289496149961266
rradius 68.95701918901742
rwrist 23.84319175631265
rhand -32.98046595433928 -49.214243734045255
rfingers 7.125019999999964
rthumb -6.246820502730344 -79.27546841003371
lclavicle 4.493576226395188E-16 3.0901291048110204E-16
lhumerus 18.061520868032915 -13.989698299372357 49.453060864385385
lradius 67.51071975192947
lwrist -18.104245950858456
lhand -44.0315512094716 -60.487777413784684
lfingers 7.1250199999999575
lthumb -16.862250173739287 -31.05620425463842
rfemur -31.60878995742177 -0.544996198873446 17.240864065552564
rtibia 47.303078096914234
rfoot -24.86882389115776 -17.189032454492782
rtoes -14.558525947718344
lfemur -25.227256854388482 3.5269355651605943 -15.625085942621617
ltibia 51.37659826873343
lfoot -23.982121958124765 2.6219037742079863
ltoes -14.117015972182571
77
root 0 0 0 2.6943580711512896 -4.183619939071317 2.2365849041993084
lowerback 12.014517755693044 1.0972813626033047 -0.18413634040828375
upperback -4.17380729635266 1.4035741769332533 -0.7601952156815422
thorax -11.185685055055933 0.6446452246326254 -1.0038550424399972
lowerneck -7.0080360268533815 1.3598813397431428 4.302986830988899
upperneck 18.93116754738992 2.804914376598271 -8.115136160047902
head 7.0812827602370945 0.9707319186065363 -3.146698088428222
rclavicle -1.5011851275644562E-15 -1.132792918479246E-15
rhumerus 17.973358138037973 14.037415765348557 -51.73987816205518
rradius 69.33988321174917
rwrist 23.34944429596046
rhand -32.981540896135286 -49.10434898310054
rfingers 7.125019999999963
rthumb -6.249547894151455 -79.14955580978142
lclavicle 7.337992746819849E-16 7.697881578585841E-16
lhumerus 18.00082638057968 -14.032855184699985 49.524426923910156
lradius 67.48255338191598
lwrist -18.031862442729626
lhand -43.99138869158191 -60.27054216445245
lfingers 7.125019999999957
lthumb -16.82198297830427 -30.832807453321
rfemur -26.5830805525205 1.0729480344064186 19.528513799591167
rtibia 37.562260138323055
rfoot -30.072209168218535 -17.372627126058
rtoes -18.581613123190323
lfemur -24.440490670011194 1.8314456020754775 -15.735407407950438
ltibia 39.089508177911135
lfoot -29.667810810160915 6.676551042916231
ltoes -17.422207175283173
78
root 0 0 0 2.8350908514048663 -4.276203549924964 2.14341182466459
lowerback 11.903107530211827 1.1670704409243515 -0.08708719237686413
upperback -4.1944200599720585 1.5044833722052933 -0.7802977425637506
thorax -11.131531689583118 0.6913883847538479 -1.09123279427599
lowerneck -6.990098819392579 1.3202970768775855 4.276251989443546
upperneck 18.92316808062749 2.743702554233594 -8.038329611391944
head 7.076675748675944 0.9473986920427894 -3.122185962579315
rclavicle -1.485689674552992E-15 -8.664255227901712E-16
rhumerus 17.976479932270443 14.078236895410166 -51.81691079133567
rradius 69.3403782288708
rwrist 23.275769756361427
rhand -32.964652521423126 -49.018507697582876
rfingers 7.125019999999963
rthumb -6.232215026935309 -79.06390866698038
lclavicle 8.379029771949738E-16 9.336111804445728E-16
lhumerus 17.847313318934553 -13.876886276964889 49.529432829524666
lradius 67.3335987481138
lwrist -18.074492247476556
lhand -43.951586638757746 -60.22939604529471
lfingers 7.125019999999957
lthumb -16.784015617189986 -30.7854503382499
rfemur -24.545141774249537 2.078903038315885 20.3588725530727
rtibia 31.668639548976476
rfoot -30.762610210846876 -16.96268861881385
rtoes -20.381226323232735
lfemur -22.989864318046724 0.8560682642602847 -15.705098481367358
ltibia 34.0369298863056
lfoot -29.52615848601897 6.969487880592754
ltoes -18.781128061417068
79
root 0 0 0 2.8861014108438208 -4.2951175005410684 2.1014651587454143
lowerback 11.823046444612206 1.1934651114194654 -0.047915097430764386
upperback -4.206884160814284 1.5415838104355064 -0.7883344958344155
thorax -11.092373669186486 0.7085812016437638 -1.1246245739302767
lowerneck -6.977140107677881 1.289352490530286 4.262229232384351
upperneck 19.0141229817384 2.6976219497983305 -8.007916290095771
head 7.105848692909457 0.9271831530119802 -3.114686466707071
rclavicle -1.3514792035021724E-15 -7.226332446487599E-16
rhumerus 17.71386762678032 13.756497366790443 -51.67238929600519
rradius 69.12816307312991
rwrist 23.448638541349943
rhand -32.940457499947016 -48.9620147708885
rfingers 7.125019999999962
rthumb -6.2065450289675805 -79.01429642070923
lclavicle 9.164842599031668E-16 9.706895243734568E-16
lhumerus 17.619568814084708 -13.576816474387414 49.49081788279698
lradius 67.09220457798644
lwrist -18.196741436764853
lhand -43.90772442108446 -60.29670193012181
lfingers 7.125019999999956
lthumb -16.74278674867302 -30.84457731486304
rfemur -23.30871778986987 2.532988933927993 20.472327616811214
rtibia 29.440534559720387
rfoot -29.493460918255714 -16.321890671063276
rtoes -21.33320562268915
lfemur -21.541066423046214 0.17754927695740685 -15.429687400887659
ltibia 31.821714208667807
lfoot -27.37450658721962 6.024419825214317
ltoes -19.625621488483525
